<svg width="358" height="130" viewBox="0 0 358 130" fill="none" xmlns="http://www.w3.org/2000/svg">
<circle cx="59" cy="65" r="59" fill="url(#paint0_radial_23_85)"/>
<path d="M151.147 102.6C144.814 102.6 139.38 101.567 134.847 99.5C130.38 97.4333 126.88 94.5333 124.347 90.8C121.88 87 120.48 82.5333 120.147 77.4L137.547 76.6C137.88 79.1333 138.614 81.3 139.747 83.1C140.88 84.9 142.38 86.2667 144.247 87.2C146.18 88.1333 148.547 88.6 151.347 88.6C153.614 88.6 155.514 88.3333 157.047 87.8C158.647 87.2667 159.847 86.4667 160.647 85.4C161.514 84.3333 161.947 83 161.947 81.4C161.947 79.9333 161.58 78.6667 160.847 77.6C160.18 76.4667 158.814 75.4667 156.747 74.6C154.747 73.6667 151.714 72.7667 147.647 71.9C141.38 70.5667 136.314 69.0333 132.447 67.3C128.647 65.5 125.847 63.2667 124.047 60.6C122.314 57.8667 121.447 54.4 121.447 50.2C121.447 45.8667 122.547 42.0667 124.747 38.8C126.947 35.5333 130.114 33 134.247 31.2C138.38 29.3333 143.314 28.4 149.047 28.4C155.18 28.4 160.314 29.4667 164.447 31.6C168.647 33.6667 171.914 36.5333 174.247 40.2C176.58 43.8667 177.98 48.1 178.447 52.9L161.247 53.7C161.047 51.3667 160.414 49.3667 159.347 47.7C158.347 46.0333 156.947 44.7333 155.147 43.8C153.414 42.8667 151.314 42.4 148.847 42.4C145.78 42.4 143.347 43.0667 141.547 44.4C139.814 45.7333 138.947 47.4667 138.947 49.6C138.947 51.2667 139.347 52.6333 140.147 53.7C141.014 54.7667 142.414 55.7 144.347 56.5C146.28 57.2333 148.98 57.9333 152.447 58.6C159.247 59.8667 164.614 61.5333 168.547 63.6C172.48 65.6667 175.28 68.1 176.947 70.9C178.614 73.7 179.447 76.9333 179.447 80.6C179.447 85.1333 178.314 89.0667 176.047 92.4C173.78 95.6667 170.514 98.2 166.247 100C162.047 101.733 157.014 102.6 151.147 102.6ZM211.669 102.2C206.002 102.2 201.035 101.033 196.769 98.7C192.569 96.3667 189.269 93.1 186.869 88.9C184.535 84.7 183.369 79.7667 183.369 74.1C183.369 68.4333 184.535 63.5 186.869 59.3C189.269 55.1 192.569 51.8333 196.769 49.5C201.035 47.1667 206.002 46 211.669 46C217.335 46 222.269 47.1667 226.469 49.5C230.669 51.8333 233.935 55.1 236.269 59.3C238.669 63.5 239.869 68.4333 239.869 74.1C239.869 79.7667 238.669 84.7 236.269 88.9C233.935 93.1 230.669 96.3667 226.469 98.7C222.269 101.033 217.335 102.2 211.669 102.2ZM211.669 89.5C215.002 89.5 217.569 88.1667 219.369 85.5C221.235 82.8333 222.169 79.0333 222.169 74.1C222.169 69.2333 221.235 65.4667 219.369 62.8C217.569 60.0667 215.002 58.7 211.669 58.7C208.269 58.7 205.635 60.0667 203.769 62.8C201.969 65.4667 201.069 69.2333 201.069 74.1C201.069 79.0333 201.969 82.8333 203.769 85.5C205.635 88.1667 208.269 89.5 211.669 89.5ZM245.373 101V47.2H260.773L261.473 63.7L259.373 63.3C259.84 59.0333 260.873 55.6333 262.473 53.1C264.14 50.5667 266.207 48.7667 268.673 47.7C271.14 46.5667 273.873 46 276.873 46C280.673 46 283.94 46.8333 286.673 48.5C289.473 50.1 291.607 52.4333 293.073 55.5C294.54 58.5 295.273 62.1333 295.273 66.4V101H278.073V72.3C278.073 69.5667 277.873 67.2333 277.473 65.3C277.073 63.3667 276.34 61.9 275.273 60.9C274.273 59.9 272.807 59.4 270.873 59.4C268.073 59.4 265.973 60.5333 264.573 62.8C263.24 65 262.573 68.1667 262.573 72.3V101H245.373ZM319.616 102.2C314.016 102.2 309.416 100.9 305.816 98.3C302.216 95.7 300.416 92.1 300.416 87.5C300.416 82.7667 301.949 79.1 305.016 76.5C308.082 73.9 312.549 72 318.416 70.8L335.116 67.4C335.116 64.2667 334.416 61.9 333.016 60.3C331.682 58.6333 329.749 57.8 327.216 57.8C324.682 57.8 322.682 58.4333 321.216 59.7C319.816 60.9 318.916 62.6333 318.516 64.9L301.316 64.3C302.382 58.1 305.149 53.5 309.616 50.5C314.082 47.5 319.949 46 327.216 46C335.616 46 341.882 47.9 346.016 51.7C350.216 55.5 352.316 61.1667 352.316 68.7V85.7C352.316 87.3667 352.582 88.4667 353.116 89C353.716 89.5333 354.516 89.8 355.516 89.8H356.816V101C356.282 101.2 355.416 101.367 354.216 101.5C353.016 101.633 351.849 101.7 350.716 101.7C348.649 101.7 346.649 101.367 344.716 100.7C342.782 99.9667 341.182 98.7 339.916 96.9C338.649 95.0333 338.016 92.3667 338.016 88.9L339.316 90.2C338.649 92.6 337.449 94.7333 335.716 96.6C334.049 98.4 331.882 99.8 329.216 100.8C326.549 101.733 323.349 102.2 319.616 102.2ZM324.116 91C326.249 91 328.149 90.5667 329.816 89.7C331.482 88.8333 332.782 87.5667 333.716 85.9C334.649 84.2333 335.116 82.1667 335.116 79.7V77.5L324.716 79.9C322.649 80.3667 321.016 81.1 319.816 82.1C318.682 83.0333 318.116 84.3 318.116 85.9C318.116 87.5 318.616 88.7667 319.616 89.7C320.616 90.5667 322.116 91 324.116 91Z" fill="black"/>
<defs>
<radialGradient id="paint0_radial_23_85" cx="0" cy="0" r="1" gradientUnits="userSpaceOnUse" gradientTransform="translate(59 65) rotate(90) scale(59)">
<stop stop-color="#DE3E7B"/>
<stop offset="0.495192" stop-color="#DE3E7B"/>
<stop offset="1" stop-color="white" stop-opacity="0"/>
</radialGradient>
</defs>
</svg>
