<svg width="353" height="130" viewBox="0 0 353 130" fill="none" xmlns="http://www.w3.org/2000/svg">
<circle cx="62.5" cy="64.5" r="62.5" fill="url(#paint0_radial_18_78)"/>
<path d="M144.147 102.6C137.814 102.6 132.38 101.567 127.847 99.5C123.38 97.4333 119.88 94.5333 117.347 90.8C114.88 87 113.48 82.5333 113.147 77.4L130.547 76.6C130.88 79.1333 131.614 81.3 132.747 83.1C133.88 84.9 135.38 86.2667 137.247 87.2C139.18 88.1333 141.547 88.6 144.347 88.6C146.614 88.6 148.514 88.3333 150.047 87.8C151.647 87.2667 152.847 86.4667 153.647 85.4C154.514 84.3333 154.947 83 154.947 81.4C154.947 79.9333 154.58 78.6667 153.847 77.6C153.18 76.4667 151.814 75.4667 149.747 74.6C147.747 73.6667 144.714 72.7667 140.647 71.9C134.38 70.5667 129.314 69.0333 125.447 67.3C121.647 65.5 118.847 63.2667 117.047 60.6C115.314 57.8667 114.447 54.4 114.447 50.2C114.447 45.8667 115.547 42.0667 117.747 38.8C119.947 35.5333 123.114 33 127.247 31.2C131.38 29.3333 136.314 28.4 142.047 28.4C148.18 28.4 153.314 29.4667 157.447 31.6C161.647 33.6667 164.914 36.5333 167.247 40.2C169.58 43.8667 170.98 48.1 171.447 52.9L154.247 53.7C154.047 51.3667 153.414 49.3667 152.347 47.7C151.347 46.0333 149.947 44.7333 148.147 43.8C146.414 42.8667 144.314 42.4 141.847 42.4C138.78 42.4 136.347 43.0667 134.547 44.4C132.814 45.7333 131.947 47.4667 131.947 49.6C131.947 51.2667 132.347 52.6333 133.147 53.7C134.014 54.7667 135.414 55.7 137.347 56.5C139.28 57.2333 141.98 57.9333 145.447 58.6C152.247 59.8667 157.614 61.5333 161.547 63.6C165.48 65.6667 168.28 68.1 169.947 70.9C171.614 73.7 172.447 76.9333 172.447 80.6C172.447 85.1333 171.314 89.0667 169.047 92.4C166.78 95.6667 163.514 98.2 159.247 100C155.047 101.733 150.014 102.6 144.147 102.6ZM206.669 102.2C201.002 102.2 196.035 101.033 191.769 98.7C187.569 96.3667 184.269 93.1 181.869 88.9C179.535 84.7 178.369 79.7667 178.369 74.1C178.369 68.4333 179.535 63.5 181.869 59.3C184.269 55.1 187.569 51.8333 191.769 49.5C196.035 47.1667 201.002 46 206.669 46C212.335 46 217.269 47.1667 221.469 49.5C225.669 51.8333 228.935 55.1 231.269 59.3C233.669 63.5 234.869 68.4333 234.869 74.1C234.869 79.7667 233.669 84.7 231.269 88.9C228.935 93.1 225.669 96.3667 221.469 98.7C217.269 101.033 212.335 102.2 206.669 102.2ZM206.669 89.5C210.002 89.5 212.569 88.1667 214.369 85.5C216.235 82.8333 217.169 79.0333 217.169 74.1C217.169 69.2333 216.235 65.4667 214.369 62.8C212.569 60.0667 210.002 58.7 206.669 58.7C203.269 58.7 200.635 60.0667 198.769 62.8C196.969 65.4667 196.069 69.2333 196.069 74.1C196.069 79.0333 196.969 82.8333 198.769 85.5C200.635 88.1667 203.269 89.5 206.669 89.5ZM240.373 101V47.2H255.773L256.473 63.7L254.373 63.3C254.84 59.0333 255.873 55.6333 257.473 53.1C259.14 50.5667 261.207 48.7667 263.673 47.7C266.14 46.5667 268.873 46 271.873 46C275.673 46 278.94 46.8333 281.673 48.5C284.473 50.1 286.607 52.4333 288.073 55.5C289.54 58.5 290.273 62.1333 290.273 66.4V101H273.073V72.3C273.073 69.5667 272.873 67.2333 272.473 65.3C272.073 63.3667 271.34 61.9 270.273 60.9C269.273 59.9 267.807 59.4 265.873 59.4C263.073 59.4 260.973 60.5333 259.573 62.8C258.24 65 257.573 68.1667 257.573 72.3V101H240.373ZM314.616 102.2C309.016 102.2 304.416 100.9 300.816 98.3C297.216 95.7 295.416 92.1 295.416 87.5C295.416 82.7667 296.949 79.1 300.016 76.5C303.082 73.9 307.549 72 313.416 70.8L330.116 67.4C330.116 64.2667 329.416 61.9 328.016 60.3C326.682 58.6333 324.749 57.8 322.216 57.8C319.682 57.8 317.682 58.4333 316.216 59.7C314.816 60.9 313.916 62.6333 313.516 64.9L296.316 64.3C297.382 58.1 300.149 53.5 304.616 50.5C309.082 47.5 314.949 46 322.216 46C330.616 46 336.882 47.9 341.016 51.7C345.216 55.5 347.316 61.1667 347.316 68.7V85.7C347.316 87.3667 347.582 88.4667 348.116 89C348.716 89.5333 349.516 89.8 350.516 89.8H351.816V101C351.282 101.2 350.416 101.367 349.216 101.5C348.016 101.633 346.849 101.7 345.716 101.7C343.649 101.7 341.649 101.367 339.716 100.7C337.782 99.9667 336.182 98.7 334.916 96.9C333.649 95.0333 333.016 92.3667 333.016 88.9L334.316 90.2C333.649 92.6 332.449 94.7333 330.716 96.6C329.049 98.4 326.882 99.8 324.216 100.8C321.549 101.733 318.349 102.2 314.616 102.2ZM319.116 91C321.249 91 323.149 90.5667 324.816 89.7C326.482 88.8333 327.782 87.5667 328.716 85.9C329.649 84.2333 330.116 82.1667 330.116 79.7V77.5L319.716 79.9C317.649 80.3667 316.016 81.1 314.816 82.1C313.682 83.0333 313.116 84.3 313.116 85.9C313.116 87.5 313.616 88.7667 314.616 89.7C315.616 90.5667 317.116 91 319.116 91Z" fill="white"/>
<defs>
<radialGradient id="paint0_radial_18_78" cx="0" cy="0" r="1" gradientUnits="userSpaceOnUse" gradientTransform="translate(62.5 64.5) rotate(90) scale(62.5)">
<stop stop-color="#DE3E7B"/>
<stop offset="0.495192" stop-color="#DE3E7B"/>
<stop offset="1" stop-opacity="0"/>
</radialGradient>
</defs>
</svg>
